<svg width="31" height="28" viewBox="0 0 31 28" fill="none" xmlns="http://www.w3.org/2000/svg">
<path d="M1.28125 5.39844H29.7188C30.2656 5.39844 30.8125 4.91992 30.8125 4.30469V1.57031C30.8125 1.02344 30.2656 0.476562 29.7188 0.476562H1.28125C0.666016 0.476562 0.1875 1.02344 0.1875 1.57031V4.30469C0.1875 4.91992 0.666016 5.39844 1.28125 5.39844ZM1.28125 16.3359H29.7188C30.2656 16.3359 30.8125 15.8574 30.8125 15.2422V12.5078C30.8125 11.9609 30.2656 11.4141 29.7188 11.4141H1.28125C0.666016 11.4141 0.1875 11.9609 0.1875 12.5078V15.2422C0.1875 15.8574 0.666016 16.3359 1.28125 16.3359ZM1.28125 27.2734H29.7188C30.2656 27.2734 30.8125 26.7949 30.8125 26.1797V23.4453C30.8125 22.8984 30.2656 22.3516 29.7188 22.3516H1.28125C0.666016 22.3516 0.1875 22.8984 0.1875 23.4453V26.1797C0.1875 26.7949 0.666016 27.2734 1.28125 27.2734Z" fill="white"/>
</svg>
