<svg width="40" height="40" viewBox="0 0 40 40" fill="none" xmlns="http://www.w3.org/2000/svg">
<path d="M39.3895 20.0797C39.3827 9.37658 30.7054 0.710165 20.0023 0.716902C9.29916 0.723639 0.632741 9.40097 0.639478 20.1041C0.645576 29.7916 7.68189 37.834 16.9796 39.2344L16.9711 25.7188L12.0493 25.7219L12.0457 20.0969L16.9676 20.0938L16.9649 15.8751C16.9619 11.0313 19.8508 8.29512 24.2258 8.29237C26.4133 8.29099 28.601 8.68024 28.601 8.68024L28.604 13.4459L26.1822 13.4474C23.7603 13.4489 22.98 14.9338 22.981 16.4963L22.9832 20.09L28.3738 20.0866L27.518 25.7122L22.9868 25.715L22.9953 39.2307C32.2913 37.8185 39.3956 29.7672 39.3895 20.0797Z" fill="#CFC89A"/>
</svg>
