<svg width="37" height="36" viewBox="0 0 37 36" fill="none" xmlns="http://www.w3.org/2000/svg">
<path d="M18.5088 9.1091C13.5088 9.11225 9.527 13.1773 9.5301 18.0991C9.53325 23.0991 13.5201 27.081 18.5201 27.0778C23.442 27.0747 27.502 23.0878 27.4988 18.0878C27.4958 13.1659 23.4307 9.106 18.5088 9.1091ZM18.5182 23.9528C15.315 23.9549 12.6572 21.3784 12.6551 18.0972C12.6531 14.894 15.2296 12.3143 18.5108 12.3122C21.714 12.3102 24.2937 14.8867 24.2957 18.0898C24.2978 21.3711 21.7213 23.9508 18.5182 23.9528ZM29.9149 8.78942C29.9141 7.61754 28.976 6.68063 27.8042 6.68137C26.6323 6.68211 25.6954 7.6202 25.6961 8.79207C25.6969 9.96395 26.6349 10.9009 27.8068 10.9001C28.9787 10.8994 29.9156 9.96129 29.9149 8.78942ZM35.8537 10.8951C35.6957 8.08265 35.0691 5.58305 33.0366 3.55308C31.004 1.52311 28.5037 0.89968 25.6911 0.745201C22.8003 0.59077 14.1285 0.596229 11.2379 0.754299C8.42553 0.912319 6.00405 1.53884 3.89596 3.57142C1.86598 5.60395 1.24256 8.10434 1.08808 10.9169C0.933648 13.8077 0.939107 22.4795 1.09718 25.3701C1.2552 28.1825 1.88172 30.6039 3.9143 32.712C6.02495 34.742 8.44722 35.3654 11.2598 35.5199C14.1505 35.6743 22.8224 35.6689 25.7129 35.5108C28.5253 35.3528 31.0249 34.7262 33.0549 32.6937C35.0848 30.583 35.7083 28.1608 35.8628 25.3482C36.0172 22.4575 36.0118 13.7856 35.8537 10.8951ZM32.1147 28.3974C31.5688 29.9603 30.3196 31.1329 28.8356 31.7589C26.4924 32.6978 21.0235 32.4669 18.5235 32.4685C15.9454 32.4701 10.4768 32.7079 8.21058 31.7718C6.64769 31.1478 5.47508 29.9767 4.84909 28.4146C3.91017 26.1495 4.1411 20.6806 4.13948 18.1025C4.1379 15.6025 3.90009 10.1339 4.83611 7.78958C5.46018 6.30481 6.63131 5.1322 8.19342 4.50622C10.4585 3.56729 15.9274 3.79822 18.5055 3.7966C21.0055 3.79503 26.4741 3.55721 28.8184 4.49323C30.3031 5.03917 31.4758 6.28844 32.1017 7.77242C33.0407 10.1156 32.8098 15.5845 32.8113 18.0845C32.813 20.6626 33.0508 26.1312 32.1147 28.3974Z" fill="#CFC89A"/>
</svg>
