<svg width="94" height="94" viewBox="0 0 94 94" fill="none" xmlns="http://www.w3.org/2000/svg">
<path d="M47 0.5C21.3125 0.5 0.5 21.3125 0.5 47C0.5 72.6875 21.3125 93.5 47 93.5C72.6875 93.5 93.5 72.6875 93.5 47C93.5 21.3125 72.6875 0.5 47 0.5ZM68.1875 43.8125C70.0625 45.6875 70.0625 48.5 68.1875 50.1875L42.875 75.6875C41.1875 77.375 38.1875 77.375 36.5 75.6875L33.3125 72.5C31.625 70.8125 31.625 67.8125 33.3125 66.125L52.4375 47L33.3125 28.0625C31.625 26.375 31.625 23.375 33.3125 21.6875L36.5 18.5C38.1875 16.8125 41.1875 16.8125 42.875 18.5L68.1875 43.8125Z" fill="#312938"/>
</svg>
