<svg width="42" height="42" viewBox="0 0 42 42" fill="none" xmlns="http://www.w3.org/2000/svg">
<path d="M39.5187 3.03337L31.3926 1.16349C30.533 0.929652 29.5958 1.39899 29.2057 2.25861L25.4613 11.011C25.1492 11.7924 25.3842 12.6516 26.0095 13.1981L30.7776 17.1014C27.9688 23.0406 23.0501 28.0437 16.9582 30.9382L13.0489 26.175C12.5017 25.5504 11.6421 25.3165 10.8611 25.6295L2.11344 29.385C1.25431 29.7762 0.864277 30.714 1.02107 31.5732L2.90118 39.6971C3.1361 40.5563 3.83957 41.1027 4.77707 41.1021C24.7771 41.0895 41.0169 24.9074 41.0042 4.82931C41.0037 3.96994 40.3783 3.26721 39.5187 3.03337Z" fill="#CFC89A"/>
</svg>
