<svg width="51" height="51" viewBox="0 0 51 51" fill="none" xmlns="http://www.w3.org/2000/svg">
<path d="M49.3164 43.5117L39.5508 33.7461C39.0625 33.3555 38.4766 33.0625 37.8906 33.0625H36.3281C38.9648 29.6445 40.625 25.3477 40.625 20.5625C40.625 9.42969 31.4453 0.25 20.3125 0.25C9.08203 0.25 0 9.42969 0 20.5625C0 31.793 9.08203 40.875 20.3125 40.875C25 40.875 29.2969 39.3125 32.8125 36.5781V38.2383C32.8125 38.8242 33.0078 39.4102 33.4961 39.8984L43.1641 49.5664C44.1406 50.543 45.6055 50.543 46.4844 49.5664L49.2188 46.832C50.1953 45.9531 50.1953 44.4883 49.3164 43.5117ZM20.3125 33.0625C13.3789 33.0625 7.8125 27.4961 7.8125 20.5625C7.8125 13.7266 13.3789 8.0625 20.3125 8.0625C27.1484 8.0625 32.8125 13.7266 32.8125 20.5625C32.8125 27.4961 27.1484 33.0625 20.3125 33.0625Z" fill="#4D331F"/>
</svg>
