<svg width="302" height="59" viewBox="0 0 302 59" fill="none" xmlns="http://www.w3.org/2000/svg">
<path d="M44.9103 31.08C45.8303 31.08 46.4903 31.28 46.8903 31.68C47.3303 32.08 47.5503 32.6 47.5503 33.24C47.5503 34.28 47.2303 35.2 46.5903 36C45.9903 36.8 45.0303 37.22 43.7103 37.26C40.5103 37.34 37.6703 37.1 35.1903 36.54C32.3503 42.5 28.9103 47.46 24.8703 51.42C20.8703 55.34 16.8503 57.3 12.8103 57.3C8.65031 57.3 5.55031 54.88 3.51031 50.04C1.47031 45.2 0.450313 38.66 0.450313 30.42C0.450313 23.38 0.950313 17.06 1.95031 11.46C2.31031 9.38 2.81031 7.98 3.45031 7.26C4.13031 6.5 5.27031 6.12 6.87031 6.12C9.51031 6.12 10.8303 7.26 10.8303 9.54C10.8303 9.78 10.7903 10.22 10.7103 10.86C9.51031 18.06 8.91031 24.58 8.91031 30.42C8.91031 36.54 9.41031 41.2 10.4103 44.4C11.4503 47.56 12.9903 49.14 15.0303 49.14C17.1103 49.14 19.3703 47.7 21.8103 44.82C24.2503 41.94 26.4903 38.32 28.5303 33.96C26.0903 32.44 24.2503 30.48 23.0103 28.08C21.7703 25.64 21.1503 22.84 21.1503 19.68C21.1503 16.52 21.6303 13.86 22.5903 11.7C23.5903 9.5 24.9303 7.86 26.6103 6.78C28.3303 5.7 30.2303 5.16 32.3103 5.16C34.8703 5.16 36.8903 6.08 38.3703 7.92C39.8903 9.76 40.6503 12.28 40.6503 15.48C40.6503 20.08 39.6503 25.1 37.6503 30.54C39.7703 30.9 42.1903 31.08 44.9103 31.08ZM27.2103 19.26C27.2103 23.18 28.4703 26.08 30.9903 27.96C32.5503 23.48 33.3303 19.78 33.3303 16.86C33.3303 15.18 33.1103 13.96 32.6703 13.2C32.2303 12.4 31.6303 12 30.8703 12C29.7903 12 28.9103 12.64 28.2303 13.92C27.5503 15.16 27.2103 16.94 27.2103 19.26ZM47.832 57.3C46.032 57.3 44.552 56.48 43.392 54.84C42.272 53.16 41.712 51.08 41.712 48.6C41.712 45.6 41.912 42.86 42.312 40.38C42.712 37.86 43.372 35.2 44.292 32.4C44.692 31.2 45.252 30.34 45.972 29.82C46.692 29.3 47.832 29.04 49.392 29.04C50.272 29.04 50.872 29.18 51.192 29.46C51.552 29.74 51.732 30.16 51.732 30.72C51.732 31.04 51.512 32.12 51.072 33.96C50.672 35.44 50.352 36.78 50.112 37.98C49.312 42.18 48.912 44.98 48.912 46.38C48.912 47.22 49.012 47.82 49.212 48.18C49.412 48.5 49.732 48.66 50.172 48.66C50.772 48.66 51.512 48.06 52.392 46.86C53.312 45.66 54.272 43.84 55.272 41.4C56.312 38.96 57.312 35.96 58.272 32.4C58.592 31.2 59.072 30.34 59.712 29.82C60.392 29.3 61.392 29.04 62.712 29.04C63.952 29.04 64.912 28.62 65.592 27.78C66.312 26.94 66.832 25.6 67.152 23.76C67.432 22.2 68.332 21.42 69.852 21.42C70.892 21.42 71.672 21.76 72.192 22.44C72.712 23.08 72.912 24.06 72.792 25.38C72.552 27.86 71.712 29.94 70.272 31.62C68.832 33.3 66.912 34.38 64.512 34.86C64.592 34.46 64.232 36.18 63.432 40.02C62.552 43.82 62.112 46.18 62.112 47.1C62.112 48.46 62.352 49.4 62.832 49.92C63.312 50.44 64.112 50.7 65.232 50.7C66.632 50.7 67.992 50.2 69.312 49.2C70.632 48.2 72.192 46.62 73.992 44.46C74.472 43.9 75.012 43.62 75.612 43.62C76.132 43.62 76.532 43.86 76.812 44.34C77.132 44.82 77.292 45.48 77.292 46.32C77.292 47.92 76.912 49.16 76.152 50.04C74.432 52.04 72.412 53.76 70.092 55.2C67.772 56.6 65.212 57.3 62.412 57.3C57.652 57.3 55.272 54.48 55.272 48.84C54.592 51.56 53.572 53.66 52.212 55.14C50.852 56.58 49.392 57.3 47.832 57.3ZM103.015 38.58C103.535 38.58 103.935 38.84 104.215 39.36C104.495 39.88 104.635 40.54 104.635 41.34C104.635 43.26 104.055 44.4 102.895 44.76C100.495 45.6 97.8552 46.08 94.9752 46.2C94.2152 49.56 92.7152 52.26 90.4752 54.3C88.2352 56.3 85.6952 57.3 82.8552 57.3C80.4552 57.3 78.3952 56.72 76.6752 55.56C74.9952 54.4 73.7152 52.86 72.8352 50.94C71.9552 49.02 71.5152 46.94 71.5152 44.7C71.5152 41.66 72.0952 38.96 73.2552 36.6C74.4152 34.2 76.0152 32.34 78.0552 31.02C80.0952 29.66 82.3552 28.98 84.8352 28.98C86.1152 28.98 87.2752 29.06 88.3152 29.22C88.7952 29.34 89.2952 29.4 89.8152 29.4C90.8952 29.4 91.7552 28.92 92.3952 27.96C93.0352 27 93.5352 25.6 93.8952 23.76C94.1752 22.2 95.0752 21.42 96.5952 21.42C97.6352 21.42 98.4152 21.76 98.9352 22.44C99.4552 23.08 99.6552 24.06 99.5352 25.38C99.3352 27.42 98.7152 29.2 97.6752 30.72C96.6752 32.24 95.3152 33.38 93.5952 34.14C94.5552 35.74 95.1752 37.66 95.4552 39.9C97.3352 39.78 99.5752 39.38 102.175 38.7C102.495 38.62 102.775 38.58 103.015 38.58ZM83.3352 50.94C84.6152 50.94 85.7152 50.42 86.6352 49.38C87.5952 48.34 88.2352 46.84 88.5552 44.88C87.3152 44.04 86.3552 42.94 85.6752 41.58C85.0352 40.22 84.7152 38.78 84.7152 37.26C84.7152 36.62 84.7752 35.98 84.8952 35.34H84.5952C82.9952 35.34 81.6552 36.12 80.5752 37.68C79.5352 39.2 79.0152 41.36 79.0152 44.16C79.0152 46.36 79.4352 48.04 80.2752 49.2C81.1552 50.36 82.1752 50.94 83.3352 50.94ZM84.1752 25.08C83.4552 25.08 82.8352 24.74 82.3152 24.06L74.5752 14.1C73.6952 12.98 73.2552 11.86 73.2552 10.74C73.2552 9.62 73.6352 8.7 74.3952 7.98C75.1952 7.26 76.0952 6.9 77.0952 6.9C77.7752 6.9 78.4152 7.1 79.0152 7.5C79.6152 7.9 80.0952 8.5 80.4552 9.3L86.0352 21.78C86.1952 22.14 86.2752 22.52 86.2752 22.92C86.2752 23.52 86.0552 24.04 85.6152 24.48C85.2152 24.88 84.7352 25.08 84.1752 25.08ZM103.745 57.3C102.225 57.3 101.145 56.5 100.505 54.9C99.9055 53.3 99.6055 50.74 99.6055 47.22C99.6055 42.02 100.345 37.08 101.825 32.4C102.185 31.24 102.765 30.4 103.565 29.88C104.405 29.32 105.565 29.04 107.045 29.04C107.845 29.04 108.405 29.14 108.725 29.34C109.045 29.54 109.205 29.92 109.205 30.48C109.205 31.12 108.905 32.56 108.305 34.8C107.905 36.4 107.585 37.8 107.345 39C107.105 40.2 106.905 41.68 106.745 43.44C108.065 40 109.545 37.2 111.185 35.04C112.825 32.88 114.425 31.34 115.985 30.42C117.585 29.5 119.045 29.04 120.365 29.04C121.645 29.04 122.605 29.38 123.245 30.06C123.925 30.7 124.265 31.66 124.265 32.94C124.265 33.98 124.045 35.94 123.605 38.82C123.205 41.26 122.885 43.58 122.645 45.78C122.405 47.94 122.285 50.36 122.285 53.04C122.285 54.56 121.965 55.66 121.325 56.34C120.725 56.98 119.725 57.3 118.325 57.3C117.005 57.3 116.045 56.96 115.445 56.28C114.845 55.6 114.545 54.58 114.545 53.22C114.545 51.62 114.825 48.98 115.385 45.3C115.865 42.1 116.105 40.06 116.105 39.18C116.105 38.54 115.885 38.22 115.445 38.22C114.925 38.22 114.185 38.9 113.225 40.26C112.305 41.58 111.345 43.34 110.345 45.54C109.385 47.74 108.605 50.06 108.005 52.5C107.565 54.38 107.045 55.66 106.445 56.34C105.885 56.98 104.985 57.3 103.745 57.3ZM177.727 43.62C178.247 43.62 178.647 43.86 178.927 44.34C179.247 44.82 179.407 45.48 179.407 46.32C179.407 47.92 179.027 49.16 178.267 50.04C176.427 52.16 174.527 53.9 172.567 55.26C170.647 56.62 168.447 57.3 165.967 57.3C163.927 57.3 162.387 56.72 161.347 55.56C160.307 54.36 159.787 52.64 159.787 50.4C159.787 49.28 160.067 47.28 160.627 44.4C161.147 41.88 161.407 40.14 161.407 39.18C161.407 38.54 161.187 38.22 160.747 38.22C160.227 38.22 159.487 38.9 158.527 40.26C157.567 41.58 156.607 43.34 155.647 45.54C154.687 47.74 153.907 50.06 153.307 52.5C152.547 55.7 150.667 57.3 147.667 57.3C146.467 57.3 145.667 56.88 145.267 56.04C144.907 55.16 144.727 53.6 144.727 51.36C144.727 50.08 144.747 49.06 144.787 48.3L144.847 43.5C144.847 37.34 145.467 30.92 146.707 24.24C147.987 17.56 149.847 11.96 152.287 7.44C154.767 2.88 157.727 0.599997 161.167 0.599997C163.007 0.599997 164.487 1.4 165.607 3C166.767 4.56 167.347 6.6 167.347 9.12C167.347 13.16 166.167 17.36 163.807 21.72C161.447 26.04 157.607 31.1 152.287 36.9C152.167 38.98 152.107 41.12 152.107 43.32C153.427 39.92 154.887 37.16 156.487 35.04C158.127 32.88 159.727 31.34 161.287 30.42C162.887 29.5 164.347 29.04 165.667 29.04C168.267 29.04 169.567 30.34 169.567 32.94C169.567 34.5 169.127 37.32 168.247 41.4C167.487 44.88 167.107 47.18 167.107 48.3C167.107 49.9 167.687 50.7 168.847 50.7C169.647 50.7 170.587 50.22 171.667 49.26C172.787 48.26 174.267 46.66 176.107 44.46C176.587 43.9 177.127 43.62 177.727 43.62ZM159.907 6.54C159.187 6.54 158.387 7.58 157.507 9.66C156.627 11.7 155.767 14.48 154.927 18C154.127 21.48 153.467 25.28 152.947 29.4C155.427 26.48 157.467 23.3 159.067 19.86C160.707 16.42 161.527 13.3 161.527 10.5C161.527 9.22 161.387 8.24 161.107 7.56C160.827 6.88 160.427 6.54 159.907 6.54ZM205.144 38.58C205.664 38.58 206.064 38.84 206.344 39.36C206.624 39.88 206.764 40.54 206.764 41.34C206.764 43.26 206.184 44.4 205.024 44.76C202.624 45.6 199.984 46.08 197.104 46.2C196.344 49.56 194.844 52.26 192.604 54.3C190.364 56.3 187.824 57.3 184.984 57.3C182.584 57.3 180.524 56.72 178.804 55.56C177.124 54.4 175.844 52.86 174.964 50.94C174.084 49.02 173.644 46.94 173.644 44.7C173.644 41.66 174.224 38.96 175.384 36.6C176.544 34.2 178.144 32.34 180.184 31.02C182.224 29.66 184.484 28.98 186.964 28.98C190.004 28.98 192.444 30.04 194.284 32.16C196.164 34.24 197.264 36.82 197.584 39.9C199.464 39.78 201.704 39.38 204.304 38.7C204.624 38.62 204.904 38.58 205.144 38.58ZM185.464 50.94C186.744 50.94 187.844 50.42 188.764 49.38C189.724 48.34 190.364 46.84 190.684 44.88C189.444 44.04 188.484 42.94 187.804 41.58C187.164 40.22 186.844 38.78 186.844 37.26C186.844 36.62 186.904 35.98 187.024 35.34H186.724C185.124 35.34 183.784 36.12 182.704 37.68C181.664 39.2 181.144 41.36 181.144 44.16C181.144 46.36 181.564 48.04 182.404 49.2C183.284 50.36 184.304 50.94 185.464 50.94ZM208.514 57.3C206.234 57.3 204.374 56.4 202.934 54.6C201.534 52.8 200.834 50.44 200.834 47.52C200.834 44.32 201.574 41.3 203.054 38.46C204.534 35.58 206.494 33.28 208.934 31.56C211.414 29.8 214.034 28.92 216.794 28.92C217.674 28.92 218.254 29.1 218.534 29.46C218.854 29.78 219.114 30.38 219.314 31.26C220.074 31.1 220.914 31.02 221.834 31.02C222.794 31.02 223.534 31.26 224.054 31.74C224.574 32.22 224.834 32.9 224.834 33.78C224.834 34.7 224.634 36.3 224.234 38.58C223.794 41.02 223.454 43.36 223.214 45.6C222.974 47.8 222.854 50.28 222.854 53.04C222.854 54.56 222.534 55.66 221.894 56.34C221.294 56.98 220.294 57.3 218.894 57.3C217.534 57.3 216.514 56.98 215.834 56.34C215.194 55.66 214.874 54.58 214.874 53.1L214.934 52.14C213.694 55.58 211.554 57.3 208.514 57.3ZM210.854 51.24C211.974 51.24 212.994 50.46 213.914 48.9C214.834 47.34 215.654 44.56 216.374 40.56L217.514 34.5C215.874 34.54 214.354 35.18 212.954 36.42C211.554 37.62 210.434 39.22 209.594 41.22C208.754 43.22 208.334 45.34 208.334 47.58C208.334 48.78 208.554 49.7 208.994 50.34C209.474 50.94 210.094 51.24 210.854 51.24ZM256.134 58.62C254.054 58.62 252.454 58.14 251.334 57.18C250.254 56.22 249.714 55.14 249.714 53.94C249.714 52.9 250.094 52 250.854 51.24C251.614 50.48 252.734 50.1 254.214 50.1C254.734 50.1 255.334 50.16 256.014 50.28C256.734 50.36 257.274 50.42 257.634 50.46C257.594 49.42 257.354 48.44 256.914 47.52C256.514 46.6 255.994 45.72 255.354 44.88C254.714 44 254.114 43.24 253.554 42.6C252.314 44.96 251.074 46.92 249.834 48.48C248.634 50.04 247.314 51.52 245.874 52.92C245.154 53.64 244.394 54 243.594 54C242.954 54 242.434 53.78 242.034 53.34C241.634 52.86 241.434 52.28 241.434 51.6C241.434 50.8 241.714 50.06 242.274 49.38L243.054 48.42C245.254 45.7 246.914 43.46 248.034 41.7C248.714 40.54 249.514 39 250.434 37.08C251.354 35.12 252.254 33.1 253.134 31.02C253.894 29.26 255.474 28.38 257.874 28.38C258.994 28.38 259.774 28.48 260.214 28.68C260.654 28.88 260.874 29.2 260.874 29.64C260.874 29.88 260.794 30.26 260.634 30.78C260.474 31.3 260.254 31.82 259.974 32.34C259.254 33.78 258.894 35 258.894 36C258.894 36.6 259.094 37.26 259.494 37.98C259.934 38.7 260.594 39.6 261.474 40.68C262.754 42.36 263.714 43.8 264.354 45C265.034 46.16 265.374 47.44 265.374 48.84C265.374 49.24 265.334 49.8 265.254 50.52C267.214 49.76 269.514 47.74 272.154 44.46C272.634 43.9 273.174 43.62 273.774 43.62C274.294 43.62 274.694 43.86 274.974 44.34C275.294 44.82 275.454 45.48 275.454 46.32C275.454 47.84 275.074 49.08 274.314 50.04C272.314 52.52 270.394 54.22 268.554 55.14C266.754 56.02 264.514 56.5 261.834 56.58C260.234 57.94 258.334 58.62 256.134 58.62ZM276.819 57.3C274.939 57.3 273.419 56.54 272.259 55.02C271.139 53.46 270.579 51.32 270.579 48.6C270.579 45.6 270.779 42.86 271.179 40.38C271.579 37.86 272.239 35.2 273.159 32.4C273.559 31.2 274.119 30.34 274.839 29.82C275.559 29.3 276.699 29.04 278.259 29.04C279.139 29.04 279.739 29.18 280.059 29.46C280.419 29.74 280.599 30.16 280.599 30.72C280.599 31.04 280.379 32.12 279.939 33.96C279.539 35.44 279.219 36.78 278.979 37.98C278.179 42.18 277.779 44.98 277.779 46.38C277.779 47.22 277.879 47.82 278.079 48.18C278.279 48.5 278.599 48.66 279.039 48.66C279.639 48.66 280.399 48.06 281.319 46.86C282.239 45.62 283.199 43.78 284.199 41.34C285.239 38.86 286.219 35.88 287.139 32.4C287.459 31.2 287.939 30.34 288.579 29.82C289.259 29.3 290.259 29.04 291.579 29.04C292.819 29.04 293.779 28.62 294.459 27.78C295.179 26.94 295.699 25.6 296.019 23.76C296.299 22.2 297.199 21.42 298.719 21.42C299.759 21.42 300.539 21.76 301.059 22.44C301.579 23.08 301.779 24.06 301.659 25.38C301.419 27.78 300.619 29.82 299.259 31.5C297.899 33.14 296.099 34.22 293.859 34.74C293.779 35.38 293.579 36.72 293.259 38.76C292.819 41.36 292.479 43.72 292.239 45.84C292.039 47.96 291.939 50.36 291.939 53.04C291.939 54.56 291.619 55.66 290.979 56.34C290.379 56.98 289.379 57.3 287.979 57.3C286.499 57.3 285.459 56.92 284.859 56.16C284.299 55.36 284.019 53.84 284.019 51.6C284.019 51.16 284.059 50.18 284.139 48.66C283.459 51.46 282.439 53.6 281.079 55.08C279.759 56.56 278.339 57.3 276.819 57.3ZM285.459 25.08C284.899 25.08 284.399 24.88 283.959 24.48C283.559 24.04 283.359 23.52 283.359 22.92C283.359 22.64 283.459 22.26 283.659 21.78L289.239 9.3C289.599 8.5 290.059 7.92 290.619 7.56C291.219 7.16 291.879 6.96 292.599 6.96C293.599 6.96 294.479 7.32 295.239 8.04C296.039 8.76 296.439 9.66 296.439 10.74C296.439 11.86 295.999 12.98 295.119 14.1L287.379 24.06C286.859 24.74 286.219 25.08 285.459 25.08Z" fill="white"/>
</svg>
