<svg width="43" height="31" viewBox="0 0 43 31" fill="none" xmlns="http://www.w3.org/2000/svg">
<path d="M41.8987 4.84312C41.4287 2.96841 39.9434 1.48497 38.1462 1.01735C34.7863 0.0819672 21.505 0.0903274 21.505 0.0903274C21.505 0.0903274 8.14566 0.0987369 4.78687 1.03835C2.9903 1.50823 1.50685 2.99354 1.03929 4.86884C0.103851 8.15068 0.108277 15.1819 0.108277 15.1819C0.108277 15.1819 0.112654 22.135 1.05227 25.4938C1.5222 27.3685 3.00746 28.7739 4.80463 29.2415C8.16454 30.0987 21.5239 30.0903 21.5239 30.0903C21.5239 30.0903 34.8052 30.082 38.164 29.2205C39.9606 28.7506 41.4441 27.3434 41.9116 25.4681C42.847 22.1081 42.8426 15.155 42.8426 15.155C42.8426 15.155 42.8382 8.12378 41.8987 4.84312ZM17.1435 21.4993L17.1355 8.84308L28.2333 15.1642L17.1435 21.4993Z" fill="#CFC89A"/>
</svg>
